{"glyphs":{" ":{"ha":0,"x_min":0,"x_max":0,"o":""},"A":{"ha":1489,"x_min":0,"x_max":0,"o":"m 1314 903 b 1350 867 1332 903 1350 885 l 1350 -176 b 1314 -214 1350 -197 1335 -214 l 1033 -214 b 997 -176 1013 -214 997 -197 l 997 867 b 1033 903 997 885 1015 903 m 456 511 b 492 475 474 511 492 493 l 492 -176 b 456 -214 492 -197 476 -214 l 175 -214 b 139 -176 154 -214 139 -197 l 139 475 b 175 511 139 493 157 511 m 885 276 b 921 240 906 276 921 261 l 921 -176 b 885 -214 921 -197 906 -214 l 604 -214 b 568 -176 583 -214 568 -197 l 568 240 b 604 276 568 261 583 276 "},"B":{"ha":1510,"x_min":0,"x_max":0,"o":"m 754 963 b 1371 347 1088 971 1378 679 b 1289 39 1371 236 1343 133 b 1064 -187 1233 -57 1158 -132 b 754 -269 968 -242 865 -269 b 446 -187 643 -269 540 -242 b 221 38 350 -132 275 -57 b 139 347 167 132 139 235 b 319 783 139 518 199 663 b 754 963 439 903 583 963 m 722 65 b 740 47 722 53 728 47 l 769 47 b 788 65 782 47 788 53 l 788 524 l 940 371 b 967 371 949 363 957 363 l 988 392 b 988 417 997 401 997 410 l 785 621 b 725 621 768 638 742 638 l 522 417 b 522 392 513 410 513 401 l 543 371 b 568 371 551 363 560 363 l 722 524 "},"C":{"ha":1510,"x_min":0,"x_max":0,"o":"m 1289 39 b 1064 -187 1233 -57 1158 -132 b 754 -269 968 -242 865 -269 b 446 -187 643 -269 540 -242 b 221 38 350 -132 275 -57 b 139 347 167 132 139 235 b 319 783 139 518 199 663 b 754 963 439 903 583 963 b 1064 881 867 963 969 935 b 1289 657 1158 826 1233 751 b 1371 347 1343 561 1371 458 b 1289 39 1371 236 1343 133 m 474 379 b 456 361 461 379 456 374 l 456 332 b 474 314 456 319 461 314 l 932 314 l 778 161 b 778 135 771 151 771 143 l 800 114 b 825 114 808 106 817 106 l 1029 318 b 1029 376 1044 333 1044 360 l 825 579 b 800 579 817 588 808 588 l 778 558 b 778 533 771 550 771 542 l 932 379 "},"D":{"ha":1510,"x_min":0,"x_max":0,"o":"m 222 39 b 139 347 167 133 139 236 b 222 657 139 458 167 561 b 446 881 276 751 351 826 b 756 963 540 935 643 963 b 1190 783 925 963 1069 903 b 1371 347 1311 663 1371 518 b 1190 -89 1371 176 1311 32 b 756 -269 1069 -210 925 -269 b 447 -187 644 -269 542 -242 b 222 39 351 -132 276 -57 m 578 379 l 731 533 b 731 558 739 542 739 550 l 710 579 b 685 579 701 588 693 588 l 481 376 b 481 318 465 360 465 333 l 685 114 b 710 114 693 106 701 106 l 731 135 b 731 161 740 143 740 151 l 578 314 l 1036 314 b 1054 332 1049 314 1054 319 l 1054 361 b 1036 379 1054 374 1049 379 "},"E":{"ha":1510,"x_min":0,"x_max":0,"o":"m 754 -269 b 319 -89 585 -269 440 -210 b 139 347 199 32 139 176 b 319 783 139 518 199 663 b 754 963 440 903 585 963 b 1371 347 1088 971 1378 679 b 754 -269 1379 15 1086 -278 m 722 169 l 568 324 b 543 324 561 331 553 331 l 522 301 b 522 276 514 293 514 285 l 725 72 b 785 72 742 57 768 57 l 988 276 b 988 301 996 285 996 293 l 967 324 b 940 324 957 331 949 331 l 788 169 l 788 628 b 769 646 788 640 782 646 l 740 646 b 722 628 728 646 722 640 "},"F":{"ha":1510,"x_min":0,"x_max":0,"o":"m 1351 189 b 1190 -89 1322 82 1269 -10 b 914 -250 1111 -168 1019 -221 b 597 -250 808 -278 703 -278 b 319 -89 490 -221 399 -168 b 139 347 199 32 139 176 b 319 782 139 517 199 661 b 756 963 440 903 585 963 b 1190 782 925 963 1069 903 b 1351 506 1269 703 1322 611 b 1351 189 1379 400 1379 294 m 464 683 b 438 683 456 692 447 692 l 418 664 b 418 638 410 654 410 646 l 1046 10 b 1072 10 1054 1 1063 1 l 1092 29 b 1092 56 1100 39 1100 47 "},"G":{"ha":1510,"x_min":0,"x_max":0,"o":"m 446 -187 b 221 38 350 -132 275 -57 b 139 347 167 132 139 235 b 319 783 139 518 199 663 b 754 963 439 903 583 963 b 1064 881 867 963 969 935 b 1289 657 1158 826 1233 751 b 1371 347 1343 561 1371 458 b 1289 39 1371 236 1343 133 b 1064 -187 1233 -57 1158 -132 b 754 -269 968 -242 865 -269 b 446 -187 643 -269 540 -242 m 1061 581 b 1036 579 1053 588 1044 588 l 681 185 l 490 378 b 464 378 482 388 474 388 l 443 357 b 443 332 435 349 435 340 l 661 110 b 701 111 672 99 692 99 l 1085 535 b 1083 560 1094 544 1093 553 "},"H":{"ha":1510,"x_min":0,"x_max":0,"o":"m 446 -187 b 221 38 350 -132 275 -57 b 139 347 167 132 139 235 b 319 783 139 518 199 663 b 754 963 439 903 583 963 b 1064 881 867 963 969 935 b 1289 657 1158 826 1233 751 b 1371 347 1343 561 1371 458 b 1289 39 1371 236 1343 133 b 1064 -187 1233 -57 1158 -132 b 754 -269 968 -242 865 -269 b 446 -187 643 -269 540 -242 m 450 96 b 450 69 440 88 440 79 l 471 49 b 496 49 478 39 486 39 l 783 325 b 792 344 789 331 792 338 l 792 619 b 774 638 792 632 786 638 l 744 638 b 726 619 732 638 726 632 l 726 361 l 450 96 "},"I":{"ha":1510,"x_min":0,"x_max":0,"o":"m 756 -269 b 139 347 424 -278 131 15 b 756 963 132 679 422 971 b 1190 783 925 963 1069 903 b 1371 347 1311 663 1371 518 b 1190 -89 1371 176 1311 32 b 756 -269 1069 -210 925 -269 m 801 347 l 989 535 b 989 560 997 543 997 551 l 968 581 b 943 581 958 590 950 590 l 756 393 l 568 581 b 542 581 560 590 551 590 l 521 560 b 521 535 513 551 513 543 l 708 347 l 521 160 b 521 133 513 151 513 143 l 542 113 b 568 113 551 104 560 104 l 756 300 l 943 113 b 968 113 950 103 958 103 l 989 133 b 989 160 999 143 999 151 "},"J":{"ha":1217,"x_min":0,"x_max":0,"o":"m 1060 889 b 1078 871 1072 889 1078 883 l 1078 -176 b 1060 -194 1078 -189 1072 -194 l 1029 -194 b 1011 -176 1017 -194 1011 -189 l 1011 294 l 233 -196 b 139 -142 190 -222 139 -192 l 139 836 b 233 890 139 886 190 917 l 1011 400 l 1011 871 b 1029 889 1011 883 1017 889 "},"K":{"ha":1479,"x_min":0,"x_max":0,"o":"m 631 161 b 608 174 631 174 618 179 l 200 -83 b 139 -49 174 -101 139 -81 l 139 743 b 200 778 139 775 174 794 l 608 519 b 631 532 618 515 631 521 l 631 743 b 693 778 631 775 665 794 l 1322 382 b 1322 313 1346 365 1346 328 l 693 -83 b 631 -49 665 -101 631 -81 "},"L":{"ha":1104,"x_min":0,"x_max":0,"o":"m 428 865 b 468 825 449 865 468 847 l 468 -140 b 428 -179 468 -162 450 -179 l 178 -179 b 139 -140 157 -179 139 -162 l 139 825 b 178 865 139 847 157 865 m 925 865 b 965 825 947 865 965 847 l 965 -140 b 925 -179 965 -162 947 -179 l 676 -179 b 636 -140 654 -179 636 -162 l 636 825 b 676 865 636 847 654 865 "},"M":{"ha":1140,"x_min":0,"x_max":0,"o":"m 982 382 b 982 313 1006 365 1006 328 l 203 -179 b 139 -143 175 -196 139 -176 l 139 838 b 203 872 139 869 174 890 "},"N":{"ha":1479,"x_min":0,"x_max":0,"o":"m 849 -49 b 786 -83 849 -81 814 -101 l 157 313 b 157 382 133 328 133 365 l 786 778 b 849 743 814 794 849 775 l 849 532 b 871 519 849 521 861 515 l 1279 778 b 1340 743 1306 794 1340 775 l 1340 -49 b 1279 -83 1340 -81 1306 -101 l 871 174 b 849 161 861 179 849 174 "},"O":{"ha":1215,"x_min":0,"x_max":0,"o":"m 983 890 b 1076 836 1024 917 1076 885 l 1076 -142 b 983 -196 1076 -190 1024 -222 l 204 294 l 204 -176 b 186 -194 204 -189 199 -194 l 157 -194 b 139 -176 144 -194 139 -189 l 139 871 b 157 889 139 883 144 889 l 186 889 b 204 871 199 889 204 883 l 204 400 "},"P":{"ha":1414,"x_min":0,"x_max":0,"o":"m 1194 897 b 1258 883 1218 906 1240 901 b 1274 818 1276 865 1282 843 l 921 -194 b 864 -236 911 -221 893 -235 b 806 -197 835 -237 815 -224 l 625 249 l 179 429 b 140 488 153 439 139 458 b 182 544 142 517 156 535 "},"Q":{"ha":1533,"x_min":0,"x_max":0,"o":"m 353 508 b 501 329 438 493 501 418 b 353 150 501 240 438 165 l 353 -253 b 335 -271 353 -265 347 -271 l 306 -271 b 288 -253 293 -271 288 -265 l 288 150 b 139 329 203 165 139 240 b 288 508 139 418 203 493 l 288 949 b 306 967 288 961 293 967 l 335 967 b 353 949 347 967 353 961 m 800 264 b 949 85 885 247 949 174 b 800 -94 949 -4 885 -79 l 800 -253 b 782 -271 800 -265 794 -271 l 751 -271 b 733 -253 739 -271 733 -265 l 733 -94 b 585 85 649 -79 585 -4 b 733 264 585 174 649 247 l 733 949 b 751 967 733 961 739 967 l 782 967 b 800 949 794 967 800 961 m 1246 817 b 1394 638 1331 801 1394 726 b 1246 458 1394 549 1331 474 l 1246 -253 b 1228 -271 1246 -265 1240 -271 l 1199 -271 b 1179 -253 1186 -271 1179 -265 l 1179 458 b 1031 638 1096 474 1031 549 b 1179 817 1031 726 1096 801 l 1179 949 b 1199 967 1179 961 1186 967 l 1228 967 b 1246 949 1240 967 1246 961 "},"R":{"ha":1753,"x_min":0,"x_max":0,"o":"m 257 65 b 294 58 269 65 282 63 l 522 381 b 497 454 506 404 497 428 b 614 571 497 519 551 571 b 732 454 679 571 732 519 b 731 443 732 449 732 444 l 1047 317 b 1139 361 1069 346 1100 361 b 1174 357 1151 361 1163 360 l 1407 711 b 1379 788 1389 735 1379 760 b 1497 904 1379 853 1432 904 b 1614 788 1560 904 1614 853 b 1497 669 1614 722 1563 669 b 1463 675 1489 669 1478 671 l 1228 319 b 1256 244 1246 299 1256 274 b 1139 126 1256 179 1204 126 b 1022 244 1074 126 1022 179 l 1022 256 l 707 382 b 614 336 683 351 651 336 b 576 343 603 336 590 339 l 349 21 b 374 -51 365 0 374 -25 b 174 -135 379 -153 242 -211 b 257 65 97 -67 156 72 "},"S":{"ha":1438,"x_min":0,"x_max":0,"o":"m 576 929 b 638 868 610 929 638 901 l 638 493 b 576 432 638 458 610 432 l 201 432 b 139 493 167 432 139 458 l 139 868 b 201 929 139 901 167 929 m 1238 929 b 1299 868 1271 929 1299 901 l 1299 493 b 1238 432 1299 458 1271 432 l 863 432 b 801 493 829 432 801 458 l 801 868 b 863 929 801 901 829 929 m 576 267 b 638 206 610 267 638 240 l 638 -169 b 576 -231 638 -203 610 -231 l 201 -231 b 139 -169 167 -231 139 -203 l 139 206 b 201 267 139 240 167 267 m 1238 267 b 1299 206 1271 267 1299 240 l 1299 -169 b 1238 -231 1299 -203 1271 -231 l 863 -231 b 801 -169 829 -231 801 -203 l 801 206 b 863 267 801 240 829 267 "},"T":{"ha":1489,"x_min":0,"x_max":0,"o":"m 1356 311 b 1356 288 1363 304 1363 296 l 1331 263 b 1306 263 1322 254 1314 254 l 1228 346 l 1228 -194 b 1186 -236 1228 -218 1210 -236 l 942 -236 b 900 -194 919 -236 900 -218 l 900 178 b 858 219 900 201 881 219 l 653 219 b 611 178 631 219 611 201 l 611 -194 b 569 -236 611 -218 592 -236 l 325 -236 b 283 -194 301 -236 283 -218 l 283 346 l 206 263 b 181 263 197 254 189 254 l 156 288 b 156 311 149 296 149 304 l 726 910 b 785 910 742 928 768 928 "},"U":{"ha":1357,"x_min":0,"x_max":0,"o":"m 1115 638 b 1011 740 1115 699 1074 740 l 451 740 l 451 965 b 488 1001 451 986 467 1001 l 1181 1001 b 1218 965 1201 1001 1218 986 l 1218 31 b 1178 -10 1218 8 1200 -10 l 1115 -10 m 746 831 b 776 861 767 831 776 840 l 776 890 b 746 921 776 911 767 921 l 642 921 b 611 890 621 921 611 911 l 611 861 b 642 831 611 840 621 831 m 1006 831 b 1036 861 1026 831 1036 840 l 1036 890 b 1006 921 1036 911 1026 921 l 901 921 b 871 890 881 921 871 911 l 871 861 b 901 831 871 840 881 831 m 1049 -297 b 1008 -337 1049 -319 1031 -337 l 757 -337 b 717 -297 735 -337 717 -319 l 717 -121 b 703 -107 717 -111 713 -107 l 568 -107 b 554 -121 558 -107 554 -111 l 554 -297 b 514 -337 554 -319 536 -337 l 179 -337 b 139 -297 157 -337 139 -319 l 139 638 b 175 674 139 658 157 674 l 1011 674 b 1049 638 1032 674 1049 658 m 413 429 b 442 460 432 429 442 439 l 442 489 b 413 519 442 510 432 519 l 307 519 b 278 489 288 519 278 510 l 278 460 b 307 429 278 439 288 429 m 644 429 b 674 460 664 429 674 439 l 674 489 b 644 519 674 510 664 519 l 539 519 b 510 489 519 519 510 510 l 510 460 b 539 429 510 439 519 429 m 876 429 b 906 460 896 429 906 439 l 906 489 b 876 519 906 510 896 519 l 771 519 b 742 489 751 519 742 510 l 742 460 b 771 429 742 439 751 429 m 413 235 b 442 264 432 235 442 244 l 442 294 b 413 324 442 314 432 324 l 307 324 b 278 294 288 324 278 314 l 278 264 b 307 235 278 244 288 235 m 644 235 b 674 264 664 235 674 244 l 674 294 b 644 324 674 314 664 324 l 539 324 b 510 294 519 324 510 314 l 510 264 b 539 235 510 244 519 235 m 876 235 b 906 264 896 235 906 244 l 906 294 b 876 324 906 314 896 324 l 771 324 b 742 294 751 324 742 314 l 742 264 b 771 235 742 244 751 235 m 413 40 b 442 69 432 40 442 50 l 442 100 b 413 129 442 119 432 129 l 307 129 b 278 100 288 129 278 119 l 278 69 b 307 40 278 50 288 40 m 644 40 b 674 69 664 40 674 50 l 674 100 b 644 129 674 119 664 129 l 539 129 b 510 100 519 129 510 119 l 510 69 b 539 40 510 50 519 40 m 876 40 b 906 69 896 40 906 50 l 906 100 b 876 129 906 119 896 129 l 771 129 b 742 100 751 129 742 119 l 742 69 b 771 40 742 50 751 40 "},"V":{"ha":2449,"x_min":0,"x_max":0,"o":"m 2246 868 b 2310 696 2289 822 2310 765 l 2310 243 b 2249 182 2310 208 2282 182 l 2114 182 l 2114 -193 b 2096 -211 2114 -206 2108 -211 l 2067 -211 b 2047 -193 2054 -211 2047 -206 l 2047 938 b 2246 868 2140 938 2192 925 m 856 756 b 1264 925 968 868 1104 925 b 1672 756 1424 925 1560 868 b 1842 347 1785 643 1842 507 b 1672 -62 1842 188 1785 50 b 1264 -232 1560 -175 1424 -232 b 856 -62 1104 -232 968 -175 b 686 347 743 50 686 188 b 856 756 686 507 743 643 m 524 901 b 542 883 536 901 542 896 l 542 585 b 374 392 542 481 475 407 l 374 -193 b 356 -211 374 -206 368 -211 l 326 -211 b 308 -193 314 -211 308 -206 l 308 392 b 139 585 207 407 139 481 l 139 883 b 157 901 139 896 144 901 l 188 901 b 206 883 200 901 206 896 l 206 624 l 257 624 l 257 883 b 275 901 257 896 263 901 l 299 901 b 317 883 311 901 317 896 l 317 624 l 365 624 l 365 883 b 383 901 365 896 371 901 l 407 901 b 425 883 419 901 425 896 l 425 624 l 476 624 l 476 883 b 494 901 476 896 482 901 m 1264 -78 b 1564 47 1381 -78 1481 -36 b 1688 347 1646 129 1688 229 b 1564 647 1688 464 1646 564 b 1264 771 1481 729 1381 771 b 964 647 1146 771 1046 729 b 840 347 882 564 840 464 b 964 47 840 229 882 129 b 1264 -78 1046 -36 1146 -78 m 1011 600 b 1264 704 1081 669 1165 704 b 1518 600 1363 704 1447 669 b 1622 347 1588 529 1622 446 b 1518 94 1622 249 1588 164 b 1264 -11 1447 24 1363 -11 b 1011 94 1165 -11 1081 24 b 906 347 940 164 906 249 b 1011 600 906 446 940 529 "},"W":{"ha":1268,"x_min":0,"x_max":0,"o":"m 164 732 b 303 674 214 781 303 747 b 221 593 303 629 265 593 b 139 674 176 593 139 629 b 164 732 139 697 147 717 m 481 642 b 461 660 468 642 461 647 l 461 689 b 481 707 461 701 468 707 l 1110 707 b 1129 689 1122 707 1129 701 l 1129 660 b 1110 642 1129 647 1122 642 m 164 406 b 303 347 214 454 303 421 b 221 267 303 303 265 267 b 139 347 176 267 139 303 b 164 406 139 371 147 390 m 481 315 b 461 333 468 315 461 321 l 461 363 b 481 381 461 375 468 381 l 1110 381 b 1129 363 1122 381 1129 375 l 1129 333 b 1110 315 1129 321 1122 315 m 164 79 b 303 22 214 128 303 93 b 221 -60 303 -24 265 -60 b 139 22 176 -60 139 -24 b 164 79 139 44 147 64 m 481 -11 b 461 7 468 -11 461 -6 l 461 36 b 481 54 461 49 468 54 l 1110 54 b 1129 36 1122 54 1129 49 l 1129 7 b 1110 -11 1129 -6 1122 -11 "},"X":{"ha":1513,"x_min":0,"x_max":0,"o":"m 575 726 b 644 893 575 792 599 847 b 810 961 690 939 744 961 l 1139 961 b 1306 893 1204 961 1260 939 b 1374 726 1351 847 1374 792 l 1374 -32 b 1306 -199 1374 -97 1351 -153 b 1139 -267 1260 -244 1204 -267 l 810 -267 b 644 -199 744 -267 690 -244 b 575 -32 599 -153 575 -97 l 575 136 b 593 154 575 149 581 154 l 622 154 b 640 136 635 154 640 149 l 640 -32 b 690 -151 640 -78 657 -118 b 810 -200 724 -183 764 -200 l 1139 -200 b 1258 -151 1185 -200 1225 -183 b 1307 -32 1290 -118 1307 -78 l 1307 726 b 1258 846 1307 772 1290 813 b 1139 894 1225 878 1185 894 l 810 894 b 690 846 764 894 724 878 b 640 726 657 813 640 772 l 640 560 b 622 542 640 547 635 542 l 593 542 b 575 560 581 542 575 547 l 575 726 m 411 544 b 411 571 421 554 421 563 l 390 592 b 365 592 381 601 372 601 l 154 381 b 154 315 133 363 133 333 l 365 104 b 390 104 372 94 381 94 l 411 125 b 411 151 421 135 421 143 l 247 315 l 956 315 b 974 333 968 315 974 321 l 974 363 b 956 381 974 375 968 381 l 247 381 "},"Y":{"ha":1390,"x_min":0,"x_max":0,"o":"m 453 724 b 522 890 453 789 476 844 b 688 958 568 936 622 958 l 1017 958 b 1183 890 1082 958 1138 936 b 1251 724 1229 844 1251 789 l 1251 -35 b 1183 -201 1251 -100 1229 -156 b 1017 -269 1138 -247 1082 -269 l 688 -269 b 522 -201 622 -269 568 -247 b 453 -35 476 -156 453 -100 l 453 133 b 471 151 453 146 458 151 l 500 151 b 518 133 513 151 518 146 l 518 -35 b 568 -154 518 -81 535 -121 b 688 -203 601 -186 642 -203 l 1017 -203 b 1136 -154 1063 -203 1103 -186 b 1185 -35 1168 -121 1185 -81 l 1185 724 b 1136 843 1185 769 1168 810 b 1017 892 1103 875 1063 892 l 688 892 b 568 843 642 892 601 875 b 518 724 535 810 518 769 l 518 557 b 500 539 518 544 513 539 l 471 539 b 453 557 458 539 453 544 l 453 724 m 701 542 b 701 568 693 551 693 560 l 722 589 b 749 589 732 599 740 599 l 958 378 b 958 313 976 360 976 331 l 749 101 b 722 101 740 93 732 93 l 701 122 b 701 149 693 132 693 140 l 865 313 l 157 313 b 139 331 144 313 139 318 l 139 360 b 157 378 139 372 144 378 l 865 378 "},"Z":{"ha":1619,"x_min":0,"x_max":0,"o":"m 867 -271 l 697 -100 b 697 -37 679 -83 679 -56 l 867 132 b 893 132 876 140 885 140 l 914 111 b 914 86 922 103 922 94 l 792 -36 l 1251 -36 b 1415 128 1342 -36 1415 38 l 1415 564 b 1251 728 1415 654 1342 728 l 369 728 b 206 564 279 728 206 654 l 206 128 b 369 -36 206 38 279 -36 l 451 -36 b 469 -54 464 -36 469 -42 l 469 -83 b 451 -101 469 -96 464 -101 l 369 -101 b 207 -35 306 -101 251 -79 b 139 128 161 11 139 65 l 139 564 b 207 726 139 626 161 681 b 369 794 251 772 306 794 l 1251 794 b 1414 726 1314 794 1368 772 b 1481 564 1458 681 1481 626 l 1481 128 b 1414 -35 1481 65 1458 11 b 1251 -101 1368 -79 1314 -101 l 792 -101 l 914 -224 b 914 -250 924 -232 924 -240 l 893 -271 b 867 -271 885 -279 876 -279 "},"a":{"ha":1603,"x_min":0,"x_max":0,"o":"m 139 390 l 139 519 b 211 693 139 588 163 644 b 385 764 260 740 317 764 l 544 764 l 544 781 b 732 972 544 899 615 972 l 871 972 b 1058 781 989 972 1058 899 l 1058 764 l 1219 764 b 1393 693 1288 764 1344 740 b 1464 519 1440 644 1464 588 l 1464 390 l 940 390 l 940 461 b 876 524 940 496 911 524 l 726 524 b 664 461 692 524 664 496 l 664 390 m 993 764 l 993 781 b 871 906 993 864 953 906 l 732 906 b 611 781 651 906 611 864 l 611 764 m 876 464 b 881 461 879 464 881 463 l 881 203 b 876 199 881 200 879 199 l 726 199 b 724 203 725 199 724 200 l 724 461 b 726 464 724 463 725 464 m 1464 324 l 1464 -35 b 1393 -208 1464 -103 1440 -160 b 1219 -281 1344 -257 1288 -281 l 385 -281 b 211 -208 317 -281 260 -257 b 139 -35 163 -160 139 -103 l 139 324 l 664 324 l 664 203 b 726 139 664 168 692 139 l 876 139 b 940 203 911 139 940 168 l 940 324 "},"b":{"ha":1510,"x_min":0,"x_max":0,"o":"m 253 900 b 240 924 242 904 238 911 l 250 951 b 272 964 254 964 261 968 l 754 814 l 1238 964 b 1260 951 1249 968 1256 964 l 1268 924 b 1257 900 1272 911 1268 904 l 772 750 b 736 750 761 746 749 746 m 1292 843 b 1371 785 1331 856 1371 825 l 1371 -43 b 1328 -101 1371 -74 1357 -93 l 772 -275 b 736 -275 761 -279 749 -279 l 182 -101 b 139 -43 153 -94 139 -75 l 139 785 b 218 843 139 825 179 856 l 754 676 "},"c":{"ha":1510,"x_min":0,"x_max":0,"o":"m 754 767 l 1290 933 b 1371 875 1331 946 1371 915 l 1371 -12 b 1328 -71 1371 -43 1357 -62 l 772 -244 b 736 -244 760 -249 749 -249 l 182 -71 b 139 -12 153 -64 139 -44 l 139 875 b 218 933 139 915 179 946 m 600 493 b 625 506 611 488 625 493 l 628 535 b 610 558 628 547 622 554 l 314 653 b 292 639 300 657 293 651 l 290 610 b 303 588 289 594 290 592 m 1203 588 b 1214 610 1211 590 1215 597 l 1213 639 b 1192 653 1211 653 1204 657 l 894 558 b 878 535 882 554 876 547 l 879 506 b 904 493 879 493 893 488 m 600 257 b 625 269 611 251 625 257 l 628 297 b 610 322 628 310 622 318 l 314 417 b 292 403 300 419 293 415 l 290 374 b 303 350 289 361 293 353 m 1203 350 b 1214 374 1211 353 1215 361 l 1213 403 b 1192 417 1211 415 1204 419 l 894 322 b 878 297 882 318 876 310 l 879 269 b 904 257 879 257 893 251 m 600 10 b 625 24 617 6 625 10 l 628 51 b 610 76 628 64 622 72 l 314 169 b 292 156 300 174 293 168 l 290 126 b 303 104 289 114 293 107 m 1203 104 b 1214 126 1211 107 1215 114 l 1213 156 b 1192 169 1211 169 1204 174 l 894 76 b 878 51 882 72 876 64 l 879 24 b 904 10 879 10 888 6 "},"d":{"ha":1250,"x_min":0,"x_max":0,"o":"m 893 769 b 1047 706 953 769 1004 749 b 1111 550 1090 663 1111 610 l 1111 -94 b 1047 -249 1111 -154 1090 -206 b 893 -312 1004 -292 953 -312 l 358 -312 b 204 -249 299 -312 247 -292 b 139 -94 161 -206 139 -154 l 139 550 b 204 706 139 610 161 663 b 358 769 247 749 299 769 l 417 769 l 417 913 b 476 972 417 946 444 972 l 774 972 b 833 913 807 972 833 946 l 833 769 m 483 769 l 768 769 l 768 906 l 483 906 "},"e":{"ha":1618,"x_min":0,"x_max":0,"o":"m 1479 -158 b 1364 -190 1479 -222 1396 -242 b 764 157 1233 33 1033 149 l 764 -60 b 729 -115 764 -86 753 -104 b 664 -106 706 -126 683 -124 l 158 351 b 158 442 132 375 132 418 l 664 897 b 729 908 683 915 706 918 b 764 853 753 897 764 879 l 764 653 b 1479 -158 1249 608 1469 336 "},"f":{"ha":1619,"x_min":0,"x_max":0,"o":"m 1460 443 b 1460 353 1488 419 1488 376 l 954 -104 b 890 -114 936 -122 914 -125 b 854 -58 867 -103 854 -85 l 854 158 b 254 -189 586 150 386 35 b 139 -157 222 -240 139 -221 b 854 654 149 338 369 610 l 854 854 b 890 910 854 881 867 899 b 954 899 914 919 935 917 "},"g":{"ha":1600,"x_min":0,"x_max":0,"o":"m 469 18 b 451 0 469 6 464 0 b 139 253 253 1 139 64 b 206 431 139 321 161 379 b 372 506 250 481 306 506 l 385 506 b 475 757 386 603 415 686 b 707 889 535 826 611 871 b 971 853 801 907 889 896 b 1146 656 1051 810 1110 744 b 1372 563 1236 654 1313 622 b 1461 335 1432 501 1461 425 b 1388 108 1461 247 1436 171 b 1185 0 1338 44 1269 8 b 1164 17 1172 -1 1165 4 l 1161 46 b 1178 65 1160 58 1165 65 b 1338 153 1246 72 1300 101 b 1394 335 1375 204 1394 264 b 1324 517 1394 408 1371 468 b 1142 590 1275 564 1215 589 b 1086 628 1115 590 1097 603 b 940 794 1056 703 1007 758 b 719 824 872 829 799 839 b 450 500 558 792 451 665 b 385 439 450 465 419 435 b 257 388 333 443 292 425 b 206 253 222 350 206 304 b 451 65 206 104 290 67 b 469 47 464 65 469 60 m 1047 -26 l 843 -229 b 790 -229 831 -244 803 -244 l 586 -26 b 586 0 576 -18 576 -10 l 603 15 b 628 15 611 24 619 24 l 783 -139 l 783 324 b 801 342 783 336 789 342 l 832 342 b 850 324 844 342 850 336 l 850 -139 l 1006 15 b 1031 15 1014 24 1022 24 l 1047 0 b 1047 -26 1057 -10 1057 -18 "},"h":{"ha":1599,"x_min":0,"x_max":0,"o":"m 469 18 b 450 0 469 6 463 0 b 139 253 254 1 139 64 b 206 431 139 321 161 379 b 372 506 250 481 306 506 l 385 506 b 475 757 386 603 415 686 b 707 889 535 826 611 871 b 969 853 800 907 888 896 b 1146 656 1051 810 1110 744 b 1371 563 1236 654 1311 622 b 1460 335 1431 501 1460 425 b 1386 108 1460 247 1435 171 b 1185 0 1338 44 1269 8 b 1164 17 1172 -1 1165 4 l 1161 46 b 1178 65 1160 58 1165 65 b 1338 153 1246 72 1300 101 b 1394 335 1375 204 1394 264 b 1324 517 1394 408 1371 468 b 1142 590 1275 564 1215 589 b 1086 628 1115 590 1097 603 b 940 794 1056 703 1007 758 b 719 824 872 829 799 839 b 525 713 638 808 574 772 b 450 500 476 653 451 582 b 385 439 450 465 419 435 b 257 388 333 443 292 425 b 206 253 222 350 206 304 b 450 65 206 104 289 67 b 469 47 463 65 469 60 m 1047 174 l 843 376 b 789 376 825 394 807 394 l 586 174 b 586 147 576 165 576 157 l 603 132 b 628 132 611 124 619 124 l 783 286 l 783 -174 b 801 -192 783 -186 789 -192 l 831 -192 b 849 -174 843 -192 849 -186 l 850 286 l 1004 132 b 1031 132 1013 124 1021 124 l 1047 147 b 1047 174 1057 157 1057 165 "},"i":{"ha":1513,"x_min":0,"x_max":0,"o":"m 906 811 b 992 776 929 804 958 793 l 1079 833 b 1151 829 1104 849 1128 847 b 1246 735 1186 801 1218 769 b 1249 664 1264 711 1265 688 l 1192 575 b 1228 490 1204 554 1215 525 l 1331 468 b 1378 414 1360 461 1375 443 b 1378 282 1383 369 1383 325 b 1331 228 1376 256 1357 233 l 1228 206 b 1192 121 1217 174 1204 144 l 1249 32 b 1246 -39 1265 8 1264 -15 b 1151 -133 1218 -74 1186 -106 b 1079 -136 1128 -151 1104 -153 l 992 -79 b 906 -115 967 -93 938 -106 l 885 -218 b 831 -265 879 -244 857 -264 b 699 -265 786 -271 742 -271 b 644 -218 669 -262 651 -247 l 622 -115 b 538 -79 588 -103 558 -92 l 449 -136 b 378 -133 425 -153 401 -151 b 283 -39 343 -106 311 -74 b 279 32 265 -17 264 7 l 336 121 b 301 206 319 153 308 182 l 199 228 b 151 282 172 233 156 256 b 151 414 146 325 146 369 b 199 468 154 444 169 463 l 301 490 b 336 575 308 518 321 546 l 279 664 b 283 735 264 689 265 713 b 378 829 311 769 343 801 b 449 833 400 847 424 849 l 538 776 b 622 811 567 792 594 804 l 644 914 b 699 961 650 943 668 958 b 831 961 742 967 786 967 b 885 914 857 957 879 940 m 764 592 b 593 521 697 592 640 568 b 521 349 544 472 521 415 b 593 176 521 281 544 224 b 764 104 640 128 697 104 b 938 176 832 104 889 128 b 1008 349 985 224 1008 281 b 938 521 1008 415 985 472 b 764 592 889 568 832 592 "},"j":{"ha":1458,"x_min":0,"x_max":0,"o":"m 1264 933 b 1313 883 1292 926 1308 910 b 1300 615 1326 801 1322 713 b 1185 388 1276 517 1239 442 b 796 203 1100 303 971 242 l 804 49 b 786 1 806 31 800 15 l 650 -135 l 643 -139 b 549 -112 625 -149 574 -172 l 475 94 l 268 169 b 246 269 225 185 214 238 l 382 407 b 429 424 394 419 411 425 l 583 415 b 768 804 624 592 685 722 b 996 924 824 861 900 900 b 1264 933 1092 946 1182 949 m 1093 717 b 933 717 1049 760 976 760 b 933 557 889 672 889 600 b 1093 557 976 513 1049 513 b 1093 717 1136 600 1136 672 m 481 -118 b 204 -237 413 -185 303 -232 b 140 -172 167 -242 139 -210 b 260 101 146 -74 192 33 l 424 42 "},"k":{"ha":1182,"x_min":0,"x_max":0,"o":"m 558 882 l 431 754 b 404 754 421 746 413 746 l 383 775 b 383 801 374 785 374 793 l 561 978 b 622 978 578 994 606 994 l 799 801 b 799 775 807 793 807 785 l 778 754 b 753 754 769 746 761 746 l 625 882 l 625 214 b 607 196 625 201 619 196 l 576 196 b 558 214 564 196 558 201 m 433 579 b 415 561 433 567 428 561 l 369 561 b 206 397 279 561 206 488 l 206 -47 b 369 -211 206 -137 279 -211 l 814 -211 b 929 -164 858 -211 897 -196 b 976 -47 961 -132 976 -93 l 976 397 b 929 514 976 443 961 482 b 814 561 897 546 858 561 l 767 561 b 749 579 754 561 749 567 l 749 608 b 767 626 749 621 754 626 l 814 626 b 976 560 876 626 931 604 b 1043 397 1021 514 1043 460 l 1043 -47 b 976 -211 1043 -111 1021 -165 b 814 -278 931 -256 876 -278 l 369 -278 b 207 -211 306 -278 251 -256 b 139 -47 161 -165 139 -111 l 139 397 b 207 560 139 460 161 514 b 369 626 251 604 306 626 l 415 626 b 433 608 428 626 433 621 "},"l":{"ha":1182,"x_min":0,"x_max":0,"o":"m 558 913 b 576 931 558 925 564 931 l 606 931 b 624 913 618 931 624 925 l 624 244 l 751 372 b 778 372 760 382 768 382 l 799 351 b 799 325 807 343 807 335 l 621 147 b 561 147 604 131 578 131 l 383 325 b 383 351 374 335 374 343 l 404 372 b 431 372 413 382 421 382 l 558 244 m 433 579 b 414 561 433 567 426 561 l 368 561 b 204 397 278 561 204 488 l 204 -47 b 368 -211 204 -137 278 -211 l 813 -211 b 976 -47 903 -211 976 -137 l 976 397 b 813 561 976 488 903 561 l 767 561 b 749 579 754 561 749 567 l 749 608 b 767 626 749 621 754 626 l 813 626 b 975 560 875 626 929 604 b 1043 397 1021 514 1043 460 l 1043 -47 b 975 -211 1043 -111 1021 -165 b 813 -278 929 -256 875 -278 l 368 -278 b 207 -211 306 -278 251 -256 b 139 -47 161 -165 139 -111 l 139 397 b 207 560 139 460 161 514 b 368 626 251 604 306 626 l 414 626 b 433 608 426 626 433 621 "},"m":{"ha":1479,"x_min":0,"x_max":0,"o":"m 1326 706 b 1326 644 1347 685 1347 665 l 1131 450 b 1106 449 1121 440 1113 440 l 1085 469 b 1085 496 1076 479 1076 488 l 1235 643 b 517 129 847 639 613 490 b 494 115 514 117 507 111 l 465 124 b 453 146 454 125 450 133 b 1233 708 558 536 817 704 l 1090 849 b 1090 874 1082 857 1082 865 l 1111 894 b 1138 894 1121 904 1129 904 m 628 699 b 610 681 628 686 622 681 l 368 681 b 253 633 325 681 286 665 b 206 517 221 600 206 561 l 206 50 b 253 -65 206 7 221 -32 b 368 -112 286 -97 325 -112 l 1074 -112 b 1190 -65 1118 -112 1157 -97 b 1238 50 1222 -32 1238 7 l 1238 346 b 1256 364 1238 358 1243 364 l 1286 364 b 1304 346 1299 364 1304 358 l 1304 50 b 1236 -112 1304 -12 1282 -67 b 1074 -179 1190 -157 1136 -179 l 368 -179 b 207 -112 306 -179 251 -157 b 139 50 161 -67 139 -12 l 139 517 b 207 679 139 579 161 633 b 368 747 250 725 304 747 l 610 747 b 628 729 622 747 628 742 "},"n":{"ha":1510,"x_min":0,"x_max":0,"o":"m 910 728 b 960 754 922 746 939 754 l 1258 754 l 1139 874 b 1139 899 1132 882 1132 890 l 1161 919 b 1186 919 1169 928 1178 928 l 1356 750 b 1356 690 1372 735 1372 707 l 1186 522 b 1161 521 1176 513 1168 513 l 1139 543 b 1139 568 1132 551 1132 560 l 1258 688 l 961 688 l 457 -31 b 407 -57 444 -49 428 -57 l 157 -57 b 139 -39 144 -57 139 -51 l 139 -10 b 157 8 139 3 144 8 l 404 8 m 407 754 b 457 728 428 754 444 746 l 624 490 b 619 465 631 481 629 472 l 596 447 b 569 451 586 440 576 442 l 404 688 l 157 688 b 139 706 144 688 139 693 l 139 736 b 157 754 139 749 144 754 l 407 754 m 1261 8 l 1142 128 b 1142 154 1132 138 1132 146 l 1164 175 b 1189 175 1172 183 1181 183 l 1358 6 b 1358 -54 1375 -11 1375 -37 l 1189 -224 b 1164 -224 1181 -232 1172 -232 l 1142 -203 b 1142 -176 1132 -193 1132 -185 l 1261 -57 l 960 -57 b 910 -31 939 -57 922 -49 l 747 200 b 751 225 740 210 742 218 l 775 243 b 800 239 785 250 793 249 l 961 8 "},"o":{"ha":1368,"x_min":0,"x_max":0,"o":"m 1047 149 b 1176 96 1099 149 1142 131 b 1229 -35 1211 60 1229 17 b 1176 -164 1229 -85 1211 -128 b 1047 -217 1142 -199 1099 -217 b 918 -164 996 -217 953 -199 b 864 -35 882 -128 864 -85 b 874 21 864 -17 867 1 l 463 232 b 322 165 425 188 379 165 b 193 219 271 165 228 183 b 139 349 157 254 139 297 b 193 478 139 399 157 442 b 322 531 228 513 271 531 b 457 471 375 531 419 511 l 871 683 b 864 731 867 700 864 715 b 918 860 864 781 882 824 b 1047 913 953 894 996 913 b 1176 860 1099 913 1142 894 b 1229 731 1211 824 1229 781 b 1176 601 1229 679 1211 636 b 1047 547 1142 565 1099 547 b 899 624 985 547 936 572 l 492 414 b 504 349 500 394 504 372 b 496 289 504 328 501 308 l 904 79 b 1047 149 940 125 988 149 "},"p":{"ha":1510,"x_min":0,"x_max":0,"o":"m 756 964 b 1190 783 925 964 1069 904 b 1371 347 1311 663 1371 518 b 1190 -89 1371 176 1311 32 b 756 -268 1069 -208 925 -268 b 139 347 422 -276 132 15 b 756 964 131 679 424 972 m 522 533 b 533 507 518 521 521 511 l 563 499 b 586 511 574 494 582 499 b 768 631 618 590 679 631 b 933 490 872 631 933 572 b 894 379 933 442 924 410 b 861 347 879 364 868 353 b 817 315 853 340 838 331 b 710 140 746 271 710 229 b 728 122 710 128 715 122 l 750 122 b 769 140 763 122 769 128 b 857 269 775 210 807 235 b 868 276 860 271 864 274 b 958 350 907 303 928 317 b 1003 493 989 383 1003 432 b 771 694 1003 608 914 694 b 522 533 647 694 564 640 m 738 49 b 697 10 706 49 697 39 l 697 4 b 738 -35 697 -25 706 -35 l 743 -35 b 781 4 772 -35 781 -25 l 781 10 b 743 49 781 39 772 49 "},"q":{"ha":1243,"x_min":0,"x_max":0,"o":"m 1018 868 b 1104 813 1058 886 1104 857 l 1104 318 b 1068 263 1104 292 1092 272 b 546 258 850 150 685 206 b 204 301 450 293 325 322 l 204 -226 b 186 -244 204 -239 199 -244 l 157 -244 b 139 -226 144 -244 139 -239 l 139 861 b 189 922 139 890 160 917 b 481 901 294 939 400 929 b 607 863 521 888 563 875 b 868 825 696 838 768 814 b 1018 868 917 831 967 844 "},"r":{"ha":1293,"x_min":0,"x_max":0,"o":"m 1113 839 b 1154 797 1136 839 1154 821 l 1154 133 b 1113 93 1154 111 1136 93 l 993 93 l 993 581 b 896 678 993 642 957 678 l 408 678 l 408 797 b 450 839 408 821 426 839 m 896 622 b 938 581 919 622 938 603 l 938 -136 b 896 -178 938 -158 919 -178 l 179 -178 b 139 -136 157 -178 139 -158 l 139 581 b 179 622 139 603 157 622 "},"s":{"ha":1556,"x_min":0,"x_max":0,"o":"m 1357 935 b 1417 875 1389 935 1417 907 l 1417 -60 b 1357 -119 1417 -92 1389 -119 l 961 -119 b 818 -222 893 -119 844 -154 b 778 -250 811 -240 799 -250 b 736 -222 757 -250 743 -240 b 593 -119 710 -154 661 -119 l 199 -119 b 139 -60 165 -119 139 -92 l 139 875 b 199 935 139 907 165 935 l 596 935 b 778 840 667 935 738 897 b 958 935 818 897 888 935 "},"t":{"ha":1364,"x_min":0,"x_max":0,"o":"m 669 172 b 654 164 665 168 661 165 l 431 106 b 394 142 410 100 389 121 l 451 367 b 460 381 453 371 456 376 l 992 913 b 1078 935 1015 936 1043 943 b 1222 790 1146 922 1210 858 b 1201 704 1229 756 1222 726 m 1051 -164 b 1010 -206 1051 -187 1032 -206 l 181 -206 b 139 -164 158 -206 139 -187 l 139 736 b 181 778 139 760 158 778 l 779 778 l 421 419 b 397 381 411 411 403 399 l 340 156 b 364 75 332 125 340 99 b 444 51 388 51 414 44 l 668 110 b 708 133 683 114 697 122 l 1050 474 "},"u":{"ha":1436,"x_min":0,"x_max":0,"o":"m 1297 731 b 1271 626 1306 685 1297 650 l 1194 550 b 1092 718 1176 613 1142 668 b 924 821 1042 767 986 801 l 1000 897 b 1104 924 1025 924 1060 932 b 1229 856 1150 915 1192 893 b 1297 731 1267 818 1289 776 m 869 767 b 1046 671 935 756 993 724 b 1140 496 1097 618 1129 560 l 560 -86 b 285 182 519 42 413 147 m 232 129 b 408 35 294 119 354 88 b 504 -142 463 -19 494 -78 b 490 -150 500 -146 494 -149 l 169 -235 b 142 -207 153 -239 138 -224 l 224 117 b 232 129 225 121 228 125 "},"v":{"ha":1507,"x_min":0,"x_max":0,"o":"m 719 432 b 678 390 719 408 701 390 l 181 390 b 139 433 157 390 139 410 b 304 806 146 579 201 703 b 676 971 407 908 531 964 b 719 929 700 972 719 953 m 889 825 b 1231 650 1024 813 1138 754 b 1368 285 1322 546 1368 424 b 1210 -97 1368 136 1315 8 b 826 -256 1103 -203 975 -256 b 286 221 557 -261 306 -46 b 329 265 285 244 303 265 l 761 265 b 844 363 828 265 844 285 l 844 782 b 889 825 844 808 865 826 "},"w":{"ha":1618,"x_min":0,"x_max":0,"o":"m 1419 692 b 1479 654 1446 707 1479 683 l 1479 40 b 1419 3 1479 11 1446 -12 l 1089 176 b 1067 163 1078 182 1067 175 l 1067 65 b 1006 -83 1067 8 1046 -42 b 856 -144 964 -124 914 -144 l 349 -144 b 201 -83 292 -144 242 -124 b 139 65 160 -42 139 8 l 139 628 b 201 778 139 686 160 736 b 349 839 242 818 292 839 l 856 839 b 1006 778 914 839 964 818 b 1067 628 1046 736 1067 686 l 1067 531 b 1093 519 1067 515 1081 513 "},"x":{"ha":1139,"x_min":0,"x_max":0,"o":"m 814 363 b 325 363 814 40 325 40 l 325 721 b 814 721 325 1043 814 1043 m 982 542 b 1000 524 994 542 1000 536 l 1000 363 b 885 64 1000 236 961 138 b 603 -57 807 -10 713 -50 l 603 -193 l 793 -193 b 811 -211 806 -193 811 -199 l 811 -240 b 793 -258 811 -253 806 -258 l 346 -258 b 328 -240 333 -258 328 -253 l 328 -211 b 346 -193 328 -199 333 -193 l 536 -193 l 536 -57 b 256 64 426 -50 332 -10 b 139 363 178 138 139 236 l 139 524 b 157 542 139 536 144 542 l 188 542 b 206 524 200 542 206 536 l 206 363 b 935 363 206 -111 935 -111 l 935 524 b 953 542 935 536 940 542 "},"y":{"ha":1564,"x_min":0,"x_max":0,"o":"m 1313 810 b 1439 585 1386 750 1428 675 b 1357 343 1449 494 1422 414 l 842 -196 b 753 -196 815 -222 776 -222 l 238 343 b 157 585 172 414 146 494 b 282 810 167 675 208 750 b 744 767 436 933 611 915 l 797 708 l 850 767 b 1313 810 983 915 1158 933 "},"z":{"ha":1550,"x_min":0,"x_max":0,"o":"m 950 821 l 950 936 b 968 954 950 949 956 954 l 999 954 b 1017 936 1011 954 1017 949 l 1017 821 l 1181 821 b 1343 754 1243 821 1297 799 b 1411 590 1389 708 1411 654 l 1411 -10 b 1343 -172 1411 -72 1389 -126 b 1181 -239 1297 -217 1243 -239 l 369 -239 b 207 -172 306 -239 251 -217 b 139 -10 161 -126 139 -72 l 139 590 b 207 754 139 654 161 708 b 369 821 251 799 306 821 l 533 821 l 533 936 b 551 954 533 949 539 954 l 582 954 b 600 936 594 954 600 949 l 600 821 m 533 790 l 533 682 b 551 664 533 669 539 664 l 582 664 b 600 682 594 664 600 669 l 600 790 m 950 790 l 950 682 b 968 664 950 669 956 664 l 999 664 b 1017 682 1011 664 1017 669 l 1017 790 m 510 485 b 392 485 476 517 424 517 b 392 367 358 451 358 399 b 510 367 424 333 476 333 b 510 485 542 399 542 451 m 835 485 b 717 485 801 517 749 517 b 717 367 683 451 683 399 b 835 367 749 333 801 333 b 835 485 867 399 867 451 m 1160 485 b 1042 485 1126 517 1074 517 b 1042 367 1008 451 1008 399 b 1160 367 1074 333 1126 333 b 1160 485 1192 399 1192 451 m 450 214 b 367 131 401 214 367 179 b 510 72 363 58 461 18 b 450 214 563 119 522 218 m 835 190 b 717 190 801 222 749 222 b 717 72 683 157 683 104 b 835 72 749 39 801 39 b 835 190 867 104 867 157 m 1160 190 b 1042 190 1126 222 1074 222 b 1042 72 1008 157 1008 104 b 1160 72 1074 39 1126 39 b 1160 190 1192 104 1192 157 "}}}
